<svg width="322" height="324" viewBox="0 0 322 324" fill="none" xmlns="http://www.w3.org/2000/svg">
<rect x="69" y="70" width="184.713" height="184.713" rx="92.3564" fill="url(#paint0_linear_21440_386)"/>
<g filter="url(#filter0_d_21440_386)">
<path d="M174.816 140.735C173.293 138.662 171.523 136.869 170.378 135.867C168.803 129.137 187.703 105.503 209.325 121.118C229.745 135.867 214.336 160.352 205.172 162.786C203.741 159.493 203.597 153.018 194.72 148.038C185.842 143.058 177.823 145.747 177.823 145.747C177.823 145.747 176.168 142.574 174.816 140.735Z" fill="#FFB703"/>
<path d="M174.816 140.735C173.293 138.662 171.523 136.869 170.378 135.867C168.803 129.137 187.703 105.503 209.325 121.118C229.745 135.867 214.336 160.352 205.172 162.786C203.741 159.493 203.597 153.018 194.72 148.038C185.842 143.058 177.823 145.747 177.823 145.747C177.823 145.747 176.168 142.574 174.816 140.735Z" stroke="#FFB703"/>
</g>
<g filter="url(#filter1_d_21440_386)">
<path d="M116.682 206.888H204.743C204.743 206.888 220.207 203.022 220.207 188.274C220.207 169.23 199.874 167.225 199.874 167.225C199.874 167.225 201.415 158.061 193.86 152.19C186.306 146.319 174.673 152.19 174.673 152.19C174.673 152.19 168.516 134.664 149.758 133.003C122.266 130.569 116.682 161.784 116.682 161.784C116.682 161.784 98.4971 165.22 98.4971 183.262C98.4971 203.76 116.682 206.888 116.682 206.888Z" fill="#FBFBFA"/>
<path d="M116.682 206.888H204.743C204.743 206.888 220.207 203.022 220.207 188.274C220.207 169.23 199.874 167.225 199.874 167.225C199.874 167.225 201.415 158.061 193.86 152.19C186.306 146.319 174.673 152.19 174.673 152.19C174.673 152.19 168.516 134.664 149.758 133.003C122.266 130.569 116.682 161.784 116.682 161.784C116.682 161.784 98.4971 165.22 98.4971 183.262C98.4971 203.76 116.682 206.888 116.682 206.888Z" stroke="#FBFBFA"/>
</g>
<defs>
<filter id="filter0_d_21440_386" x="165.786" y="115.381" width="58.126" height="55.9985" filterUnits="userSpaceOnUse" color-interpolation-filters="sRGB">
<feFlood flood-opacity="0" result="BackgroundImageFix"/>
<feColorMatrix in="SourceAlpha" type="matrix" values="0 0 0 0 0 0 0 0 0 0 0 0 0 0 0 0 0 0 127 0" result="hardAlpha"/>
<feOffset dy="4"/>
<feGaussianBlur stdDeviation="2"/>
<feComposite in2="hardAlpha" operator="out"/>
<feColorMatrix type="matrix" values="0 0 0 0 0 0 0 0 0 0 0 0 0 0 0 0 0 0 0.25 0"/>
<feBlend mode="normal" in2="BackgroundImageFix" result="effect1_dropShadow_21440_386"/>
<feBlend mode="normal" in="SourceGraphic" in2="effect1_dropShadow_21440_386" result="shape"/>
</filter>
<filter id="filter1_d_21440_386" x="93.9971" y="132.367" width="130.71" height="83.0206" filterUnits="userSpaceOnUse" color-interpolation-filters="sRGB">
<feFlood flood-opacity="0" result="BackgroundImageFix"/>
<feColorMatrix in="SourceAlpha" type="matrix" values="0 0 0 0 0 0 0 0 0 0 0 0 0 0 0 0 0 0 127 0" result="hardAlpha"/>
<feOffset dy="4"/>
<feGaussianBlur stdDeviation="2"/>
<feComposite in2="hardAlpha" operator="out"/>
<feColorMatrix type="matrix" values="0 0 0 0 0 0 0 0 0 0 0 0 0 0 0 0 0 0 0.25 0"/>
<feBlend mode="normal" in2="BackgroundImageFix" result="effect1_dropShadow_21440_386"/>
<feBlend mode="normal" in="SourceGraphic" in2="effect1_dropShadow_21440_386" result="shape"/>
</filter>
<linearGradient id="paint0_linear_21440_386" x1="239.824" y1="81.5983" x2="83.1757" y2="243.544" gradientUnits="userSpaceOnUse">
<stop stop-color="#4385E5"/>
<stop offset="1" stop-color="#A751C7"/>
</linearGradient>
</defs>
</svg>
